<svg width="32" height="32" viewBox="0 0 32 32" fill="none" xmlns="http://www.w3.org/2000/svg">
<path d="M30.8378 1.53784L24.3378 0.0378402C23.6315 -0.12466 22.9065 0.24409 22.619 0.90659L19.619 7.90659C19.3565 8.51909 19.5315 9.23784 20.0503 9.65659L23.8378 12.7566C21.5878 17.5503 17.6565 21.5378 12.7628 23.8316L9.66279 20.0441C9.23779 19.5253 8.52528 19.3503 7.91278 19.6128L0.912785 22.6128C0.244035 22.9066 -0.124715 23.6316 0.0377848 24.3378L1.53778 30.8378C1.69403 31.5128 2.29403 32.0003 3.00028 32.0003C19.0065 32.0003 32.0003 19.0316 32.0003 3.00034C32.0003 2.30034 31.519 1.69409 30.8378 1.53784Z" fill="#C99456"/>
</svg>
